{
  "accessors": [
    {
      "bufferView": 0,
      "byteOffset": 0,
      "componentType": 5125,
      "count": 36,
      "type": "SCALAR"
    },
    {
      "bufferView": 1,
      "byteOffset": 0,
      "componentType": 5126,
      "count": 36,
      "max": [
        -1.85528357472580980000e-01,
        7.89229976830770620000e-02,
        -7.19692264908846080000e-02
      ],
      "min": [
        -2.88310321553292000000e-01,
        -1.11367246878131690000e-03,
        -1.74751190672799230000e-01
      ],
      "type": "VEC3"
    },
    {
      "bufferView": 1,
      "byteOffset": 12,
      "componentType": 5126,
      "count": 36,
      "type": "VEC3"
    }
  ],
  "asset": {
    "generator": "Wings 3D 2.2.6.1",
    "version": "2.0"
  },
  "bufferViews": [
    {
      "buffer": 0,
      "byteLength": 144,
      "byteOffset": 0
    },
    {
      "buffer": 0,
      "byteLength": 864,
      "byteOffset": 144,
      "byteStride": 24
    }
  ],
  "buffers": [
    {
      "byteLength": 1008,
      "uri": "Cube_3d_printing_sample.bin"
    }
  ],
  "images": [
    {
      "uri": "Cube_3d_printing_sample_baseColorTexture.png"
    },
    {
      "uri": "Cube_3d_printing_sample_metallicRoughnessTexture_met_met_rough.png"
    }
  ],
  "materials": [
    {
      "doubleSided": true,
      "emissiveFactor": [
        0.00000000000000000000e+00,
        0.00000000000000000000e+00,
        0.00000000000000000000e+00
      ],
      "name": "94",
      "pbrMetallicRoughness": {
        "baseColorFactor": [
          1.00000000000000000000e+00,
          1.00000000000000000000e+00,
          1.00000000000000000000e+00,
          1.00000000000000000000e+00
        ],
        "baseColorTexture": {
          "index": 0
        },
        "metallicFactor": 1.00000000000000000000e+00,
        "metallicRoughnessTexture": {
          "index": 1
        },
        "roughnessFactor": 9.00000000000000020000e-01
      }
    }
  ],
  "meshes": [
    {
      "name": "mesh_id4",
      "primitives": [
        {
          "attributes": {
            "NORMAL": 2,
            "POSITION": 1
          },
          "indices": 0,
          "material": 0
        }
      ]
    }
  ],
  "nodes": [
    {
      "mesh": 0,
      "name": "mesh_id4"
    }
  ],
  "scene": 0,
  "scenes": [
    {
      "nodes": [
        0
      ]
    }
  ],
  "textures": [
    {
      "source": 0
    },
    {
      "source": 1
    }
  ]
}