{"asset":{"generator":"3D Builder","version":"2.0"},"scene":0,"scenes":[{"nodes":[0]}],"nodes":[{"mesh":0,"matrix":[5.0000004768371582,0,0,0,0,5,-2.384185791015625E-6,0,0,2.3841853362682741E-6,5,0,0.22500082850456238,-0.0012944634072482586,0.25034567713737488,1]}],"meshes":[{"primitives":[{"attributes":{"POSITION":0},"mode":4,"indices":1,"material":0}]}],"materials":[{"name":"Material","pbrMetallicRoughness":{"baseColorFactor":[0.21223078668117523,0.21223078668117523,0.21223078668117523,1],"metallicFactor":0,"roughnessFactor":1},"alphaMode":"OPAQUE"}],"accessors":[{"bufferView":0,"byteOffset":0,"count":8,"componentType":5126,"type":"VEC3","min":[-0.055000003427267075,0,-0.060000002384185791],"max":[-0.035000000149011612,0.020000001415610313,-0.040000002831220627]},{"bufferView":1,"byteOffset":0,"count":36,"componentType":5125,"type":"SCALAR"}],"bufferViews":[{"buffer":0,"byteOffset":0,"byteLength":96,"byteStride":12,"target":34962},{"buffer":0,"byteOffset":96,"byteLength":144,"target":34963}],"buffers":[{"byteLength":240,"uri":"Cube_3d_printing_sample.bin"}]}