{"asset":{"generator":"3D Builder","version":"2.0"},"scene":0,"scenes":[{"nodes":[0]}],"nodes":[{"mesh":0,"matrix":[0.39370077848434448,0,0,0,0,-4.693279009870821E-8,-0.39370071887969971,0,0,0.39370071887969971,-4.693279009870821E-8,0,0,0.0031150411814451218,-3.7134190167265047E-10,1]}],"meshes":[{"primitives":[{"attributes":{"POSITION":0,"COLOR_0":1},"mode":4,"indices":2}]}],"accessors":[{"bufferView":0,"byteOffset":0,"count":149355,"componentType":5126,"type":"VEC3","min":[-0.1917046457529068,-0.16070146858692169,-0.0079122064635157585],"max":[0.1949341744184494,0.11377094686031342,0.36495980620384216]},{"bufferView":1,"byteOffset":0,"count":149355,"componentType":5121,"type":"VEC4","normalized":true},{"bufferView":2,"byteOffset":0,"count":869820,"componentType":5125,"type":"SCALAR"}],"bufferViews":[{"buffer":0,"byteOffset":0,"byteLength":1792260,"byteStride":12,"target":34962},{"buffer":0,"byteOffset":1792260,"byteLength":597420,"byteStride":4,"target":34962},{"buffer":0,"byteOffset":2389680,"byteLength":3479280,"target":34963}],"buffers":[{"byteLength":5868960,"uri":"squirtle.bin"}]}