{"asset":{"generator":"3D Builder","version":"2.0"},"scene":0,"scenes":[{"nodes":[0]}],"nodes":[{"mesh":0,"matrix":[0.99999994039535522,0,0,0,0,-1.1920928244535389E-7,-0.99999982118606567,0,0,0.99999982118606567,-1.1920928244535389E-7,0,0,0.0019308135379105806,-2.3017093786492637E-10,1]}],"meshes":[{"primitives":[{"attributes":{"POSITION":0,"COLOR_0":1},"mode":4,"indices":2}]}],"accessors":[{"bufferView":0,"byteOffset":0,"count":397658,"componentType":5126,"type":"VEC3","min":[-0.012708399444818497,-0.041409745812416077,-0.0019308138871565461],"max":[0.012713699601590633,0.11163556575775146,0.068721204996109009]},{"bufferView":1,"byteOffset":0,"count":397658,"componentType":5121,"type":"VEC4","normalized":true},{"bufferView":2,"byteOffset":0,"count":2385948,"componentType":5125,"type":"SCALAR"}],"bufferViews":[{"buffer":0,"byteOffset":0,"byteLength":4771896,"byteStride":12,"target":34962},{"buffer":0,"byteOffset":4771896,"byteLength":1590632,"byteStride":4,"target":34962},{"buffer":0,"byteOffset":6362528,"byteLength":9543792,"target":34963}],"buffers":[{"byteLength":15906320,"uri":"ideaform3d_raptor.bin"}]}