{"asset":{"generator":"3D Builder","version":"2.0"},"scene":0,"scenes":[{"nodes":[0]}],"nodes":[{"mesh":0,"matrix":[0.039370074868202209,0,0,0,0,-4.6932786545994531E-9,-0.039370071142911911,0,0,0.039370071142911911,-4.6932786545994531E-9,0,0,0,0,1]}],"meshes":[{"primitives":[{"attributes":{"POSITION":0,"COLOR_0":1},"mode":4,"indices":2}]}],"accessors":[{"bufferView":0,"byteOffset":0,"count":61083,"componentType":5126,"type":"VEC3","min":[-0.69420385360717773,-0.69420385360717773,0],"max":[0.69416022300720215,0.69416022300720215,3.0719778537750244]},{"bufferView":1,"byteOffset":0,"count":61083,"componentType":5121,"type":"VEC4","normalized":true},{"bufferView":2,"byteOffset":0,"count":444534,"componentType":5125,"type":"SCALAR"}],"bufferViews":[{"buffer":0,"byteOffset":0,"byteLength":732996,"byteStride":12,"target":34962},{"buffer":0,"byteOffset":732996,"byteLength":244332,"byteStride":4,"target":34962},{"buffer":0,"byteOffset":977328,"byteLength":1778136,"target":34963}],"buffers":[{"byteLength":2755464,"uri":"Eiffel_tower_sample.bin"}]}